solid
 facet normal -1.000000e+00 -0.000000e+00 -0.000000e+00
   outer loop
     vertex -1.600000e+00  8.000000e-01  1.400000e+00
     vertex -1.600000e+00  8.000000e-01  0.000000e+00
     vertex -1.600000e+00 -8.000000e-01  1.400000e+00
   endloop
 endfacet
 facet normal -1.000000e+00  0.000000e+00  0.000000e+00
   outer loop
     vertex -1.600000e+00  8.000000e-01  0.000000e+00
     vertex -1.600000e+00 -8.000000e-01  0.000000e+00
     vertex -1.600000e+00 -8.000000e-01  1.400000e+00
   endloop
 endfacet
 facet normal  1.000000e+00 -0.000000e+00  0.000000e+00
   outer loop
     vertex -1.100000e+00 -8.000000e-01  1.400000e+00
     vertex -1.100000e+00  8.000000e-01  0.000000e+00
     vertex -1.100000e+00  8.000000e-01  1.400000e+00
   endloop
 endfacet
 facet normal  1.000000e+00 -0.000000e+00  0.000000e+00
   outer loop
     vertex -1.100000e+00 -8.000000e-01  1.400000e+00
     vertex -1.100000e+00 -8.000000e-01  0.000000e+00
     vertex -1.100000e+00  8.000000e-01  0.000000e+00
   endloop
 endfacet
 facet normal  0.000000e+00 -1.000000e+00  0.000000e+00
   outer loop
     vertex -1.600000e+00 -8.000000e-01  0.000000e+00
     vertex -1.100000e+00 -8.000000e-01  0.000000e+00
     vertex -1.600000e+00 -8.000000e-01  1.400000e+00
   endloop
 endfacet
 facet normal  0.000000e+00 -1.000000e+00  0.000000e+00
   outer loop
     vertex -1.600000e+00 -8.000000e-01  1.400000e+00
     vertex -1.100000e+00 -8.000000e-01  0.000000e+00
     vertex -1.100000e+00 -8.000000e-01  1.400000e+00
   endloop
 endfacet
 facet normal  0.000000e+00  1.000000e+00  0.000000e+00
   outer loop
     vertex -1.600000e+00  8.000000e-01  1.400000e+00
     vertex -1.100000e+00  8.000000e-01  0.000000e+00
     vertex -1.600000e+00  8.000000e-01  0.000000e+00
   endloop
 endfacet
 facet normal  0.000000e+00  1.000000e+00  0.000000e+00
   outer loop
     vertex -1.100000e+00  8.000000e-01  1.400000e+00
     vertex -1.100000e+00  8.000000e-01  0.000000e+00
     vertex -1.600000e+00  8.000000e-01  1.400000e+00
   endloop
 endfacet
 facet normal  0.000000e+00  0.000000e+00 -1.000000e+00
   outer loop
     vertex -1.100000e+00 -8.000000e-01  0.000000e+00
     vertex -1.600000e+00 -8.000000e-01  0.000000e+00
     vertex -1.600000e+00  8.000000e-01  0.000000e+00
   endloop
 endfacet
 facet normal  0.000000e+00  0.000000e+00 -1.000000e+00
   outer loop
     vertex -1.100000e+00 -8.000000e-01  0.000000e+00
     vertex -1.600000e+00  8.000000e-01  0.000000e+00
     vertex -1.100000e+00  8.000000e-01  0.000000e+00
   endloop
 endfacet
 facet normal -0.000000e+00  0.000000e+00  1.000000e+00
   outer loop
     vertex -1.600000e+00  8.000000e-01  1.400000e+00
     vertex -1.600000e+00 -8.000000e-01  1.400000e+00
     vertex -1.100000e+00 -8.000000e-01  1.400000e+00
   endloop
 endfacet
 facet normal  0.000000e+00  0.000000e+00  1.000000e+00
   outer loop
     vertex -1.100000e+00  8.000000e-01  1.400000e+00
     vertex -1.600000e+00  8.000000e-01  1.400000e+00
     vertex -1.100000e+00 -8.000000e-01  1.400000e+00
   endloop
 endfacet
 facet normal -1.000000e+00 -0.000000e+00 -0.000000e+00
   outer loop
     vertex  1.100000e+00  8.000000e-01  1.400000e+00
     vertex  1.100000e+00  8.000000e-01  0.000000e+00
     vertex  1.100000e+00 -8.000000e-01  1.400000e+00
   endloop
 endfacet
 facet normal -1.000000e+00  0.000000e+00  0.000000e+00
   outer loop
     vertex  1.100000e+00  8.000000e-01  0.000000e+00
     vertex  1.100000e+00 -8.000000e-01  0.000000e+00
     vertex  1.100000e+00 -8.000000e-01  1.400000e+00
   endloop
 endfacet
 facet normal  1.000000e+00 -0.000000e+00  0.000000e+00
   outer loop
     vertex  1.600000e+00 -8.000000e-01  1.400000e+00
     vertex  1.600000e+00  8.000000e-01  0.000000e+00
     vertex  1.600000e+00  8.000000e-01  1.400000e+00
   endloop
 endfacet
 facet normal  1.000000e+00 -0.000000e+00  0.000000e+00
   outer loop
     vertex  1.600000e+00 -8.000000e-01  1.400000e+00
     vertex  1.600000e+00 -8.000000e-01  0.000000e+00
     vertex  1.600000e+00  8.000000e-01  0.000000e+00
   endloop
 endfacet
 facet normal  0.000000e+00 -1.000000e+00  0.000000e+00
   outer loop
     vertex  1.100000e+00 -8.000000e-01  0.000000e+00
     vertex  1.600000e+00 -8.000000e-01  0.000000e+00
     vertex  1.100000e+00 -8.000000e-01  1.400000e+00
   endloop
 endfacet
 facet normal  0.000000e+00 -1.000000e+00  0.000000e+00
   outer loop
     vertex  1.100000e+00 -8.000000e-01  1.400000e+00
     vertex  1.600000e+00 -8.000000e-01  0.000000e+00
     vertex  1.600000e+00 -8.000000e-01  1.400000e+00
   endloop
 endfacet
 facet normal  0.000000e+00  1.000000e+00  0.000000e+00
   outer loop
     vertex  1.100000e+00  8.000000e-01  1.400000e+00
     vertex  1.600000e+00  8.000000e-01  0.000000e+00
     vertex  1.100000e+00  8.000000e-01  0.000000e+00
   endloop
 endfacet
 facet normal  0.000000e+00  1.000000e+00  0.000000e+00
   outer loop
     vertex  1.600000e+00  8.000000e-01  1.400000e+00
     vertex  1.600000e+00  8.000000e-01  0.000000e+00
     vertex  1.100000e+00  8.000000e-01  1.400000e+00
   endloop
 endfacet
 facet normal  0.000000e+00  0.000000e+00 -1.000000e+00
   outer loop
     vertex  1.600000e+00 -8.000000e-01  0.000000e+00
     vertex  1.100000e+00 -8.000000e-01  0.000000e+00
     vertex  1.100000e+00  8.000000e-01  0.000000e+00
   endloop
 endfacet
 facet normal  0.000000e+00  0.000000e+00 -1.000000e+00
   outer loop
     vertex  1.600000e+00 -8.000000e-01  0.000000e+00
     vertex  1.100000e+00  8.000000e-01  0.000000e+00
     vertex  1.600000e+00  8.000000e-01  0.000000e+00
   endloop
 endfacet
 facet normal -0.000000e+00  0.000000e+00  1.000000e+00
   outer loop
     vertex  1.100000e+00  8.000000e-01  1.400000e+00
     vertex  1.100000e+00 -8.000000e-01  1.400000e+00
     vertex  1.600000e+00 -8.000000e-01  1.400000e+00
   endloop
 endfacet
 facet normal  0.000000e+00  0.000000e+00  1.000000e+00
   outer loop
     vertex  1.600000e+00  8.000000e-01  1.400000e+00
     vertex  1.100000e+00  8.000000e-01  1.400000e+00
     vertex  1.600000e+00 -8.000000e-01  1.400000e+00
   endloop
 endfacet
 facet normal -1.000000e+00 -0.000000e+00 -0.000000e+00
   outer loop
     vertex -1.100000e+00  7.840000e-01  1.386000e+00
     vertex -1.100000e+00  7.840000e-01  1.400000e-02
     vertex -1.100000e+00 -7.840000e-01  1.386000e+00
   endloop
 endfacet
 facet normal -1.000000e+00  0.000000e+00  0.000000e+00
   outer loop
     vertex -1.100000e+00  7.840000e-01  1.400000e-02
     vertex -1.100000e+00 -7.840000e-01  1.400000e-02
     vertex -1.100000e+00 -7.840000e-01  1.386000e+00
   endloop
 endfacet
 facet normal  1.000000e+00 -0.000000e+00  0.000000e+00
   outer loop
     vertex  1.100000e+00 -7.840000e-01  1.386000e+00
     vertex  1.100000e+00  7.840000e-01  1.400000e-02
     vertex  1.100000e+00  7.840000e-01  1.386000e+00
   endloop
 endfacet
 facet normal  1.000000e+00 -0.000000e+00  0.000000e+00
   outer loop
     vertex  1.100000e+00 -7.840000e-01  1.386000e+00
     vertex  1.100000e+00 -7.840000e-01  1.400000e-02
     vertex  1.100000e+00  7.840000e-01  1.400000e-02
   endloop
 endfacet
 facet normal  0.000000e+00 -1.000000e+00  0.000000e+00
   outer loop
     vertex -1.100000e+00 -7.840000e-01  1.386000e+00
     vertex -1.100000e+00 -7.840000e-01  1.400000e-02
     vertex  1.100000e+00 -7.840000e-01  1.400000e-02
   endloop
 endfacet
 facet normal  0.000000e+00 -1.000000e+00  0.000000e+00
   outer loop
     vertex -1.100000e+00 -7.840000e-01  1.386000e+00
     vertex  1.100000e+00 -7.840000e-01  1.400000e-02
     vertex  1.100000e+00 -7.840000e-01  1.386000e+00
   endloop
 endfacet
 facet normal  0.000000e+00  1.000000e+00 -0.000000e+00
   outer loop
     vertex  1.100000e+00  7.840000e-01  1.400000e-02
     vertex -1.100000e+00  7.840000e-01  1.400000e-02
     vertex -1.100000e+00  7.840000e-01  1.386000e+00
   endloop
 endfacet
 facet normal  0.000000e+00  1.000000e+00  0.000000e+00
   outer loop
     vertex  1.100000e+00  7.840000e-01  1.386000e+00
     vertex  1.100000e+00  7.840000e-01  1.400000e-02
     vertex -1.100000e+00  7.840000e-01  1.386000e+00
   endloop
 endfacet
 facet normal  0.000000e+00  0.000000e+00 -1.000000e+00
   outer loop
     vertex -1.100000e+00 -7.840000e-01  1.400000e-02
     vertex -1.100000e+00  7.840000e-01  1.400000e-02
     vertex  1.100000e+00  7.840000e-01  1.400000e-02
   endloop
 endfacet
 facet normal  0.000000e+00  0.000000e+00 -1.000000e+00
   outer loop
     vertex  1.100000e+00 -7.840000e-01  1.400000e-02
     vertex -1.100000e+00 -7.840000e-01  1.400000e-02
     vertex  1.100000e+00  7.840000e-01  1.400000e-02
   endloop
 endfacet
 facet normal  0.000000e+00  0.000000e+00  1.000000e+00
   outer loop
     vertex  1.100000e+00  7.840000e-01  1.386000e+00
     vertex -1.100000e+00  7.840000e-01  1.386000e+00
     vertex -1.100000e+00 -7.840000e-01  1.386000e+00
   endloop
 endfacet
 facet normal -0.000000e+00  0.000000e+00  1.000000e+00
   outer loop
     vertex  1.100000e+00  7.840000e-01  1.386000e+00
     vertex -1.100000e+00 -7.840000e-01  1.386000e+00
     vertex  1.100000e+00 -7.840000e-01  1.386000e+00
   endloop
 endfacet
endsolid
