M48
;Layer_Color=9474304
;FILE_FORMAT=2:4
INCH,TZ
;TYPE=PLATED
T1F00S00C0.0120
T2F00S00C0.0130
%
T01
X-3160Y-1930
Y-1380
X-2790Y-80
X-2620Y750
X-2720Y1150
X-3160Y1490
Y2240
Y2920
X-2130Y2240
X-2098Y1448
X-1658Y1660
X-388Y1600
X-460Y2920
X-1840
X632Y2330
X1052
X1592
X1942
X2312Y2410
X1312Y2010
Y1580
X1312Y2920
X3282Y2920
X3342Y1293
X2932Y1273
X2590Y1010
Y680
X2372Y138
X2400Y-530
X2750Y-940
X3347Y-527
Y133
X3130Y-1890
X2030
X-940Y-1930
X-1310Y-1940
X-1180Y-1181
T02
X-709Y-709
X-236
Y-236
X-709
Y236
Y709
X-236
Y236
X236
Y709
X709
Y236
Y-236
X236
Y-709
X709
M30
