G04 Layer_Color=8421504*
%FSLAX24Y24*%
%MOIN*%
G70*
G01*
G75*
%ADD10R,0.0197X0.0236*%
%ADD11R,0.0374X0.0335*%
%ADD12R,0.0236X0.0197*%
%ADD13R,0.0256X0.0197*%
%ADD14R,0.0295X0.0315*%
%ADD15R,0.0709X0.0394*%
%ADD16R,0.0300X0.0300*%
%ADD17O,0.0256X0.0079*%
%ADD18O,0.0079X0.0256*%
%ADD19R,0.1850X0.1850*%
D10*
X1032Y2007D02*
D03*
Y1613D02*
D03*
X1942Y2007D02*
D03*
Y1613D02*
D03*
X1650Y-197D02*
D03*
Y197D02*
D03*
X1592Y2007D02*
D03*
Y1613D02*
D03*
X3342Y1613D02*
D03*
Y2007D02*
D03*
X-2380Y-17D02*
D03*
Y377D02*
D03*
X652Y1614D02*
D03*
Y2008D02*
D03*
D11*
X2356Y1584D02*
D03*
Y2036D02*
D03*
X2927D02*
D03*
Y1584D02*
D03*
D12*
X-2297Y740D02*
D03*
X-1903D02*
D03*
X1883Y680D02*
D03*
X2277D02*
D03*
X2277Y1030D02*
D03*
X1883D02*
D03*
X-3137Y-1060D02*
D03*
X-2743D02*
D03*
X-1317Y-1610D02*
D03*
X-923D02*
D03*
D13*
X2023Y-200D02*
D03*
X2397D02*
D03*
D14*
X-1834Y1150D02*
D03*
X-2366D02*
D03*
X-1284Y1660D02*
D03*
X-753D02*
D03*
D15*
X-2940Y342D02*
D03*
Y-642D02*
D03*
D16*
X3347Y-197D02*
D03*
D17*
X-1191Y866D02*
D03*
Y709D02*
D03*
Y551D02*
D03*
Y394D02*
D03*
Y236D02*
D03*
Y79D02*
D03*
Y-79D02*
D03*
Y-236D02*
D03*
Y-394D02*
D03*
Y-551D02*
D03*
Y-709D02*
D03*
Y-866D02*
D03*
X1191D02*
D03*
Y-709D02*
D03*
Y-551D02*
D03*
Y-394D02*
D03*
Y-236D02*
D03*
Y-79D02*
D03*
Y79D02*
D03*
Y236D02*
D03*
Y394D02*
D03*
Y551D02*
D03*
Y709D02*
D03*
Y866D02*
D03*
D18*
X-866Y-1191D02*
D03*
X-709D02*
D03*
X-551D02*
D03*
X-394D02*
D03*
X-236D02*
D03*
X-79D02*
D03*
X79D02*
D03*
X236D02*
D03*
X394D02*
D03*
X551D02*
D03*
X709D02*
D03*
X866D02*
D03*
Y1191D02*
D03*
X709D02*
D03*
X551D02*
D03*
X394D02*
D03*
X236D02*
D03*
X79D02*
D03*
X-79D02*
D03*
X-236D02*
D03*
X-394D02*
D03*
X-551D02*
D03*
X-709D02*
D03*
X-866D02*
D03*
D19*
X0Y0D02*
D03*
M02*
