G04 Layer_Physical_Order=2*
G04 Layer_Color=16711680*
%FSLAX24Y24*%
%MOIN*%
G70*
G01*
G75*
%ADD25C,0.0100*%
%ADD26C,0.0240*%
%ADD27C,0.0260*%
%ADD28C,0.0150*%
G36*
X3457Y-2047D02*
X-698D01*
X-729Y-1997D01*
X-716Y-1930D01*
X-733Y-1844D01*
X-781Y-1771D01*
X-854Y-1723D01*
X-905Y-1713D01*
X-1281Y-1337D01*
Y-72D01*
X-1281Y-72D01*
X-1295Y-4D01*
X-1333Y54D01*
X-1920Y640D01*
Y1167D01*
X1051D01*
X1110Y1179D01*
X1160Y1212D01*
X1305Y1357D01*
X1312Y1356D01*
X1397Y1373D01*
X1470Y1421D01*
X1519Y1494D01*
X1536Y1580D01*
X1519Y1666D01*
X1470Y1739D01*
X1397Y1787D01*
X1312Y1804D01*
X1226Y1787D01*
X1153Y1739D01*
X1104Y1666D01*
X1087Y1580D01*
X1089Y1573D01*
X988Y1473D01*
X-1879D01*
X-1891Y1533D01*
X-1940Y1606D01*
X-2013Y1655D01*
X-2098Y1672D01*
X-2184Y1655D01*
X-2257Y1606D01*
X-2306Y1533D01*
X-2323Y1448D01*
X-2306Y1362D01*
X-2277Y1319D01*
Y567D01*
X-2263Y498D01*
X-2225Y440D01*
X-1638Y-146D01*
Y-1411D01*
X-1624Y-1479D01*
X-1586Y-1537D01*
X-1157Y-1965D01*
X-1151Y-1997D01*
X-1182Y-2047D01*
X-3277D01*
Y3067D01*
X3457D01*
Y-2047D01*
D02*
G37*
D25*
X-1971Y1320D02*
X1051D01*
X-2098Y1448D02*
X-1971Y1320D01*
X1051D02*
X1312Y1580D01*
D26*
X-388Y1600D02*
D03*
X2372Y138D02*
D03*
X-1840Y2920D02*
D03*
X2590Y1010D02*
D03*
Y680D02*
D03*
X-2620Y750D02*
D03*
X-1180Y-1181D02*
D03*
X-940Y-1930D02*
D03*
X2750Y-940D02*
D03*
X-1310Y-1940D02*
D03*
X-2720Y1150D02*
D03*
X-2098Y1448D02*
D03*
X-3160Y2920D02*
D03*
Y1490D02*
D03*
X-460Y2920D02*
D03*
X1312Y2920D02*
D03*
X1592Y2330D02*
D03*
X1942D02*
D03*
X1312Y2010D02*
D03*
X3282Y2920D02*
D03*
X2312Y2410D02*
D03*
X3342Y1293D02*
D03*
X3347Y133D02*
D03*
X2400Y-530D02*
D03*
X3347Y-527D02*
D03*
X2030Y-1890D02*
D03*
X3130D02*
D03*
X-3160Y-1930D02*
D03*
Y-1380D02*
D03*
X-2790Y-80D02*
D03*
X-1658Y1660D02*
D03*
X1052Y2330D02*
D03*
X1312Y1580D02*
D03*
X632Y2330D02*
D03*
X2932Y1273D02*
D03*
X-2130Y2240D02*
D03*
X-3160D02*
D03*
D27*
X-709Y709D02*
D03*
X-236D02*
D03*
X236D02*
D03*
X709D02*
D03*
X-709Y236D02*
D03*
X-236D02*
D03*
X236D02*
D03*
X709D02*
D03*
X-709Y-236D02*
D03*
X-236D02*
D03*
X236D02*
D03*
X709D02*
D03*
X-709Y-709D02*
D03*
X-236D02*
D03*
X236D02*
D03*
X709D02*
D03*
D28*
X-1459Y-1411D02*
Y-72D01*
X-2098Y567D02*
X-1459Y-72D01*
X-2098Y567D02*
Y1448D01*
X-1459Y-1411D02*
X-940Y-1930D01*
M02*
