G04 Layer_Physical_Order=1*
G04 Layer_Color=255*
%FSLAX24Y24*%
%MOIN*%
G70*
G01*
G75*
%ADD10R,0.0197X0.0236*%
%ADD11R,0.0236X0.0197*%
%ADD12R,0.0374X0.0335*%
%ADD13R,0.0256X0.0197*%
%ADD14R,0.0295X0.0315*%
%ADD15R,0.0709X0.0394*%
%ADD16R,0.0300X0.0300*%
G04:AMPARAMS|DCode=17|XSize=31.5mil|YSize=29.5mil|CornerRadius=0mil|HoleSize=0mil|Usage=FLASHONLY|Rotation=40.000|XOffset=0mil|YOffset=0mil|HoleType=Round|Shape=Rectangle|*
%AMROTATEDRECTD17*
4,1,4,-0.0026,-0.0214,-0.0216,0.0012,0.0026,0.0214,0.0216,-0.0012,-0.0026,-0.0214,0.0*
%
%ADD17ROTATEDRECTD17*%

G04:AMPARAMS|DCode=18|XSize=19.7mil|YSize=25.6mil|CornerRadius=0mil|HoleSize=0mil|Usage=FLASHONLY|Rotation=40.000|XOffset=0mil|YOffset=0mil|HoleType=Round|Shape=Rectangle|*
%AMROTATEDRECTD18*
4,1,4,0.0007,-0.0161,-0.0158,0.0035,-0.0007,0.0161,0.0158,-0.0035,0.0007,-0.0161,0.0*
%
%ADD18ROTATEDRECTD18*%

%ADD19R,0.0315X0.0295*%
%ADD20O,0.0256X0.0079*%
%ADD21O,0.0079X0.0256*%
%ADD22R,0.1850X0.1850*%
%ADD23C,0.0060*%
%ADD24C,0.0090*%
%ADD25C,0.0300*%
%ADD26C,0.0100*%
%ADD27C,0.0080*%
%ADD28C,0.0200*%
%ADD29C,0.0110*%
%ADD30C,0.0197*%
%ADD31C,0.0197*%
%ADD32C,0.0394*%
%ADD33C,0.0240*%
%ADD34C,0.0260*%
G36*
X-3087Y-1258D02*
X-2818D01*
X-2799Y-1305D01*
X-2954Y-1460D01*
X-3280D01*
Y-1258D01*
X-3187D01*
Y-1060D01*
X-3087D01*
Y-1258D01*
D02*
G37*
G36*
X-1025Y-1025D02*
X-1003Y-1075D01*
X-1004Y-1080D01*
X-1006Y-1102D01*
Y-1152D01*
X-1010Y-1168D01*
X-1012Y-1191D01*
Y-1412D01*
X-1267D01*
Y-1610D01*
Y-1808D01*
X-1181D01*
X-1164Y-1825D01*
X-1148Y-1858D01*
X-1153Y-1873D01*
X-1159Y-1901D01*
X-1160Y-1930D01*
X-1159Y-1959D01*
X-1153Y-1987D01*
X-1144Y-2014D01*
X-1131Y-2040D01*
X-1123Y-2052D01*
X-1138Y-2089D01*
X-1149Y-2102D01*
X-1460D01*
X-1467Y-2101D01*
X-1470Y-2099D01*
Y-1808D01*
X-1367D01*
Y-1610D01*
Y-1412D01*
X-1398D01*
Y-1096D01*
X-1305Y-1003D01*
X-1301Y-1004D01*
X-1280Y-1006D01*
X-1102D01*
X-1080Y-1004D01*
X-1075Y-1003D01*
X-1025Y-1025D01*
D02*
G37*
G36*
X-2578Y33D02*
X-2380D01*
Y-67D01*
X-2578D01*
Y-235D01*
X-2501D01*
X-2482Y-281D01*
X-2546Y-345D01*
X-3280D01*
Y45D01*
X-2578D01*
Y33D01*
D02*
G37*
G36*
X2323Y-383D02*
X2348Y-391D01*
X2374Y-396D01*
X2400Y-398D01*
X3350D01*
X3357Y-397D01*
X3460D01*
Y-3050D01*
X1900D01*
Y-663D01*
X1944Y-630D01*
X2250D01*
Y-448D01*
X2251Y-398D01*
X2300Y-371D01*
X2323Y-383D01*
D02*
G37*
G36*
X-1023Y-2498D02*
X-855D01*
X-839Y-2542D01*
Y-3050D01*
X-1098D01*
X-1127Y-3000D01*
X-1127Y-2999D01*
X-1114Y-2968D01*
X-1105Y-2936D01*
X-1100Y-2903D01*
X-1098Y-2870D01*
X-1100Y-2837D01*
X-1105Y-2804D01*
X-1114Y-2772D01*
X-1127Y-2741D01*
X-1143Y-2712D01*
X-1163Y-2685D01*
X-1185Y-2660D01*
X-1210Y-2638D01*
X-1237Y-2618D01*
X-1266Y-2602D01*
X-1268Y-2601D01*
Y-2498D01*
X-1123D01*
Y-2300D01*
X-1023D01*
Y-2498D01*
D02*
G37*
G36*
X-2187D02*
X-2042D01*
Y-2612D01*
X-2053Y-2618D01*
X-2080Y-2638D01*
X-2105Y-2660D01*
X-2127Y-2685D01*
X-2147Y-2712D01*
X-2163Y-2741D01*
X-2176Y-2772D01*
X-2185Y-2804D01*
X-2190Y-2837D01*
X-2192Y-2870D01*
X-2190Y-2903D01*
X-2185Y-2936D01*
X-2176Y-2968D01*
X-2163Y-2999D01*
X-2163Y-3000D01*
X-2192Y-3050D01*
X-3280D01*
Y-2440D01*
X-2600D01*
X-2580Y-2439D01*
X-2560Y-2434D01*
X-2541Y-2426D01*
X-2523Y-2415D01*
X-2508Y-2402D01*
X-2501Y-2396D01*
X-2455Y-2415D01*
Y-2498D01*
X-2287D01*
Y-2300D01*
X-2187D01*
Y-2498D01*
D02*
G37*
G36*
X-310Y1450D02*
X-335Y1427D01*
X-356Y1415D01*
X-360Y1415D01*
X-372Y1418D01*
X-394Y1419D01*
X-406Y1430D01*
Y1453D01*
X-408Y1476D01*
X-413Y1498D01*
X-422Y1519D01*
X-434Y1539D01*
X-448Y1556D01*
X-475Y1582D01*
Y2590D01*
X-476Y2612D01*
X-482Y2634D01*
X-490Y2656D01*
X-502Y2675D01*
X-517Y2692D01*
X-595Y2770D01*
X-593Y2820D01*
X-552Y2854D01*
X-862Y3223D01*
X-871Y3234D01*
X-894Y3261D01*
X-926Y3300D01*
X-1021Y3413D01*
X-1218Y3247D01*
X-1251Y3286D01*
X-1289Y3253D01*
X-1448Y3443D01*
X-1607Y3310D01*
X-1488Y3168D01*
X-1768Y2932D01*
X-1528Y2646D01*
X-1235Y2297D01*
X-1187Y2337D01*
X-1147Y2297D01*
Y1940D01*
X-1147D01*
Y1904D01*
X-1147D01*
Y1409D01*
X-1012D01*
X-992Y1377D01*
X-987Y1366D01*
X-1015Y1327D01*
X-1587D01*
Y1407D01*
X-1820D01*
X-1879Y1467D01*
X-1880Y1476D01*
X-1885Y1505D01*
X-1895Y1532D01*
X-1908Y1558D01*
X-1924Y1582D01*
X-1943Y1604D01*
X-1964Y1623D01*
X-1988Y1639D01*
X-2014Y1651D01*
X-2041Y1661D01*
X-2070Y1666D01*
X-2098Y1668D01*
X-2127Y1666D01*
X-2155Y1661D01*
X-2183Y1651D01*
X-2209Y1639D01*
X-2233Y1623D01*
X-2254Y1604D01*
X-2273Y1582D01*
X-2289Y1558D01*
X-2302Y1532D01*
X-2311Y1505D01*
X-2317Y1476D01*
X-2319Y1448D01*
X-2363Y1407D01*
X-2613D01*
Y1200D01*
X-2366D01*
Y1100D01*
X-2613D01*
Y893D01*
X-2515D01*
Y790D01*
X-2297D01*
Y690D01*
X-2515D01*
Y639D01*
X-3280D01*
Y3660D01*
X-1268D01*
X-1250Y3610D01*
X-1371Y3507D01*
X-1244Y3356D01*
X-1085Y3489D01*
X-1186Y3610D01*
X-1163Y3660D01*
X-310D01*
Y1450D01*
D02*
G37*
G36*
X3460Y2225D02*
X3212D01*
Y2304D01*
X2405D01*
Y2036D01*
X2305D01*
Y2304D01*
X2068D01*
Y2225D01*
X1990D01*
Y2007D01*
X1890D01*
Y2225D01*
X1640D01*
Y2007D01*
X1590D01*
Y1957D01*
X1392D01*
Y1838D01*
X1387Y1829D01*
X1342Y1798D01*
X1339Y1799D01*
X1310Y1801D01*
X1281Y1799D01*
X1278Y1798D01*
X1233Y1829D01*
X1228Y1838D01*
Y1957D01*
X1030D01*
Y2007D01*
X980D01*
Y2225D01*
X970D01*
Y3660D01*
X3460D01*
Y2225D01*
D02*
G37*
G36*
X3390Y1395D02*
X3460D01*
Y3D01*
X3357D01*
X3350Y3D01*
X2400D01*
X2374Y1D01*
X2348Y-4D01*
X2323Y-12D01*
X2300Y-24D01*
X2258Y-5D01*
X2250Y3D01*
Y482D01*
X2495D01*
Y630D01*
X2277D01*
Y730D01*
X2495D01*
Y832D01*
X2495D01*
Y980D01*
X2277D01*
Y1080D01*
X2495D01*
Y1120D01*
X2540D01*
X2560Y1121D01*
X2580Y1126D01*
X2599Y1134D01*
X2617Y1145D01*
X2632Y1158D01*
X2732Y1258D01*
X2745Y1273D01*
X2756Y1291D01*
X2764Y1310D01*
X2766Y1316D01*
X2875D01*
Y1584D01*
X2975D01*
Y1316D01*
X3212D01*
Y1395D01*
X3290D01*
Y1613D01*
X3390D01*
Y1395D01*
D02*
G37*
G36*
X710Y2225D02*
X700D01*
Y2007D01*
X600D01*
Y2225D01*
X550D01*
Y3660D01*
X710D01*
Y2225D01*
D02*
G37*
%LPC*%
G36*
X1228D02*
X1080D01*
Y2057D01*
X1228D01*
Y2225D01*
D02*
G37*
G36*
X1540Y2225D02*
X1392D01*
Y2057D01*
X1540D01*
Y2225D01*
D02*
G37*
%LPD*%
D10*
X1030Y2007D02*
D03*
Y1613D02*
D03*
X1940Y2007D02*
D03*
Y1613D02*
D03*
X1650Y-197D02*
D03*
Y197D02*
D03*
X1590Y2007D02*
D03*
Y1613D02*
D03*
X-2380Y-17D02*
D03*
Y377D02*
D03*
X3340Y1613D02*
D03*
Y2007D02*
D03*
X650Y1613D02*
D03*
Y2007D02*
D03*
D11*
X-1467Y-2300D02*
D03*
X-1073D02*
D03*
X-2297Y740D02*
D03*
X-1903D02*
D03*
X1883Y680D02*
D03*
X2277D02*
D03*
X2277Y1030D02*
D03*
X1883D02*
D03*
X-2237Y-2300D02*
D03*
X-1843D02*
D03*
X-3137Y-1060D02*
D03*
X-2743D02*
D03*
X-1317Y-1610D02*
D03*
X-923D02*
D03*
D12*
X2355Y1584D02*
D03*
Y2036D02*
D03*
X2925D02*
D03*
Y1584D02*
D03*
D13*
X2023Y-200D02*
D03*
X2397D02*
D03*
D14*
X-1834Y1150D02*
D03*
X-2366D02*
D03*
D15*
X-2940Y342D02*
D03*
Y-642D02*
D03*
D16*
X3350Y-197D02*
D03*
D17*
X-1251Y3286D02*
D03*
X-909Y2878D02*
D03*
D18*
X-1230Y2599D02*
D03*
X-1470Y2885D02*
D03*
D19*
X-890Y2188D02*
D03*
Y1656D02*
D03*
D20*
X-1191Y866D02*
D03*
Y709D02*
D03*
Y551D02*
D03*
Y394D02*
D03*
Y236D02*
D03*
Y79D02*
D03*
Y-79D02*
D03*
Y-236D02*
D03*
Y-394D02*
D03*
Y-551D02*
D03*
Y-709D02*
D03*
Y-866D02*
D03*
X1191D02*
D03*
Y-709D02*
D03*
Y-551D02*
D03*
Y-394D02*
D03*
Y-236D02*
D03*
Y-79D02*
D03*
Y79D02*
D03*
Y236D02*
D03*
Y394D02*
D03*
Y551D02*
D03*
Y709D02*
D03*
Y866D02*
D03*
D21*
X-866Y-1191D02*
D03*
X-709D02*
D03*
X-551D02*
D03*
X-394D02*
D03*
X-236D02*
D03*
X-79D02*
D03*
X79D02*
D03*
X236D02*
D03*
X394D02*
D03*
X551D02*
D03*
X709D02*
D03*
X866D02*
D03*
Y1191D02*
D03*
X709D02*
D03*
X551D02*
D03*
X394D02*
D03*
X236D02*
D03*
X79D02*
D03*
X-79D02*
D03*
X-236D02*
D03*
X-394D02*
D03*
X-551D02*
D03*
X-709D02*
D03*
X-866D02*
D03*
D22*
X0Y0D02*
D03*
D23*
X-1529Y-1579D02*
Y-1042D01*
X-1600Y-2167D02*
Y-1650D01*
X-1529Y-1579D01*
X-1769Y-1479D02*
Y-943D01*
X-2600Y-2310D02*
X-1769Y-1479D01*
X-1889Y-1429D02*
Y-893D01*
X-2650Y-2190D02*
X-1889Y-1429D01*
X-2009Y-1379D02*
Y-843D01*
X-2700Y-2070D02*
X-2009Y-1379D01*
X-2129Y-1000D02*
Y-794D01*
X-2130Y-1001D02*
X-2129Y-1000D01*
X-2130Y-1329D02*
Y-1001D01*
X-2751Y-1950D02*
X-2130Y-1329D01*
X-2250Y-1279D02*
Y-910D01*
X-2801Y-1830D02*
X-2250Y-1279D01*
X-2370Y-1230D02*
Y-694D01*
X-2850Y-1710D02*
X-2370Y-1230D01*
X-2490Y-1180D02*
Y-644D01*
X-2900Y-1590D02*
X-2490Y-1180D01*
X-1649Y-1440D02*
Y-992D01*
X-1649Y-1528D02*
Y-1440D01*
X-3290Y-2310D02*
X-2600D01*
X-3290Y-2190D02*
X-2650D01*
X-3290Y-2070D02*
X-2700D01*
X-2250Y-744D02*
X-1427Y79D01*
X-2250Y-910D02*
Y-744D01*
X-2250Y-910D02*
X-2250Y-910D01*
X-2370Y-694D02*
X-1440Y236D01*
X-2490Y-644D02*
X-1452Y394D01*
X-2658Y-642D02*
X-1465Y551D01*
X-2940Y-642D02*
X-2658D01*
X-1889Y-893D02*
X-1389Y-394D01*
X-1769Y-943D02*
X-1377Y-551D01*
X-3290Y-1950D02*
X-2751D01*
X-3290Y-1830D02*
X-2801D01*
X-3290Y-1710D02*
X-2850D01*
X-3290Y-1590D02*
X-2900D01*
X1409Y813D02*
Y1079D01*
X2640Y1790D02*
X2857Y2007D01*
X2640Y1350D02*
Y1790D01*
X2857Y2007D02*
X3340D01*
X1191Y-709D02*
X1305D01*
X1409Y-813D01*
Y-3060D02*
Y-813D01*
X1191Y-3060D02*
Y-866D01*
X-1477Y709D02*
X-1191D01*
X-1465Y551D02*
X-1191D01*
X-1452Y394D02*
X-1191D01*
X-1440Y236D02*
X-1191D01*
X-1427Y79D02*
X-1191D01*
X-2129Y-794D02*
X-1414Y-79D01*
X-1191D01*
X-1377Y-551D02*
X-1191D01*
X-1649Y-992D02*
X-1365Y-709D01*
X-1191D01*
X-2009Y-843D02*
X-1401Y-236D01*
X-1191D01*
X-1389Y-394D02*
X-1191D01*
X1319Y-551D02*
X1529Y-762D01*
X1331Y-394D02*
X1650Y-713D01*
X1343Y-236D02*
X1770Y-663D01*
X-709Y-3060D02*
Y-1191D01*
X-236Y-3060D02*
Y-1191D01*
X-394Y-3060D02*
Y-1191D01*
X1191Y-236D02*
X1343D01*
X1191Y-394D02*
X1331D01*
X1770Y-3060D02*
Y-663D01*
X1650Y812D02*
X1841Y1002D01*
X1787Y680D02*
X1890D01*
X1191Y709D02*
X1305D01*
X1409Y813D01*
X1191Y551D02*
X1319D01*
X1529Y762D01*
X1191Y394D02*
X1331D01*
X1650Y713D01*
X1650Y812D01*
X1191Y236D02*
X1343D01*
X1787Y680D01*
X866Y-3060D02*
Y-1191D01*
X1529Y-3060D02*
Y-762D01*
X1191Y-551D02*
X1319D01*
X1650Y-3060D02*
Y-713D01*
X1529Y762D02*
Y1025D01*
X2297Y1613D02*
X2375Y1534D01*
X1920Y1613D02*
X2297D01*
X709Y-3060D02*
Y-1191D01*
X551Y-3060D02*
Y-1191D01*
X394Y-3060D02*
Y-1191D01*
X236Y-3060D02*
Y-1191D01*
X79Y-3060D02*
Y-1191D01*
X-79Y-3060D02*
Y-1191D01*
X-551Y-3060D02*
Y-1191D01*
X-1353Y-866D02*
X-1191D01*
X-1529Y-1042D02*
X-1353Y-866D01*
X-2743Y-1060D02*
Y-839D01*
X-2940Y-642D02*
X-2743Y-839D01*
X-2940Y342D02*
X-1844D01*
X-1477Y709D01*
X-1720Y-1600D02*
X-1649Y-1528D01*
X-1720Y-2180D02*
Y-1600D01*
X-1840Y-2300D02*
X-1720Y-2180D01*
X-1600Y-2167D02*
X-1467Y-2300D01*
X1409Y1079D02*
X1700Y1370D01*
X236Y1191D02*
Y1343D01*
X709Y1191D02*
Y1381D01*
X840Y1820D02*
X1030Y1630D01*
X840Y1820D02*
Y3670D01*
X1529Y1025D02*
X1754Y1250D01*
X2540D01*
X420Y1843D02*
X650Y1613D01*
X420Y1843D02*
Y3670D01*
X551Y1191D02*
Y1368D01*
X394Y1191D02*
Y1356D01*
X180Y1570D02*
X394Y1356D01*
X300Y1619D02*
Y3670D01*
Y1619D02*
X551Y1368D01*
X180Y1570D02*
Y3670D01*
X60Y1519D02*
X236Y1343D01*
X60Y1519D02*
Y3670D01*
X79Y1191D02*
Y1331D01*
X-60Y1470D02*
X79Y1331D01*
X-60Y1470D02*
Y3670D01*
X-79Y1191D02*
Y1319D01*
X-180Y1420D02*
X-79Y1319D01*
X-180Y1420D02*
Y3670D01*
X650Y1439D02*
X709Y1381D01*
X650Y1439D02*
Y1610D01*
X866Y1191D02*
Y1466D01*
X1030Y1630D01*
X2540Y1250D02*
X2640Y1350D01*
X1700Y1370D02*
X1880D01*
X1940Y1430D01*
Y1610D01*
D24*
X-394Y866D02*
Y1191D01*
X-940Y-1930D02*
X-866Y-1856D01*
Y-1191D01*
X-2098Y1448D02*
X-2066D01*
X-1799Y1181D02*
X-870D01*
X-2066Y1448D02*
X-1799Y1181D01*
X1191Y-79D02*
X1378D01*
X1500Y-201D01*
X1653D01*
X1378Y80D02*
X1491Y193D01*
X1653D01*
X243Y80D02*
X1378D01*
X-1073Y-2300D02*
Y-2177D01*
X-1310Y-1940D02*
X-1073Y-2177D01*
X-394Y1191D02*
Y1612D01*
X-1470Y2885D02*
X-916D01*
X-551Y1203D02*
Y1453D01*
X-620Y1522D02*
X-551Y1453D01*
X-620Y1522D02*
Y2590D01*
X-709Y1191D02*
Y1371D01*
X-890Y1552D02*
X-709Y1371D01*
X-890Y1552D02*
Y1656D01*
X-909Y2878D02*
X-620Y2590D01*
D25*
X2400Y-197D02*
X3350D01*
D26*
X1310Y1580D02*
X1317Y1573D01*
X1191Y880D02*
Y1061D01*
X1590Y1573D02*
Y1613D01*
X1317Y1573D02*
X1590D01*
X1191Y1061D02*
X1590Y1460D01*
Y1603D01*
D27*
X-1783Y866D02*
X-1191D01*
X-1902Y748D02*
X-1783Y866D01*
D28*
X1650Y-199D02*
X2003D01*
D29*
X-890Y2188D02*
Y2259D01*
X-1230Y2599D02*
X-890Y2259D01*
D30*
X-1843Y-2818D02*
Y-2300D01*
X-1895Y-2870D02*
X-1843Y-2818D01*
D31*
X-1467Y-2798D02*
Y-2300D01*
Y-2798D02*
X-1395Y-2870D01*
D32*
X-1895D02*
D03*
X-1395D02*
D03*
D33*
X3130Y-2930D02*
D03*
X2020D02*
D03*
X-3160D02*
D03*
X-1070Y-2610D02*
D03*
X-2240D02*
D03*
X-3160Y-1380D02*
D03*
X2372Y138D02*
D03*
X2590Y1010D02*
D03*
Y680D02*
D03*
X-2620Y750D02*
D03*
X-1180Y-1181D02*
D03*
X-940Y-1930D02*
D03*
X2750Y-940D02*
D03*
X-1310Y-1940D02*
D03*
X1310Y1580D02*
D03*
X-2720Y1150D02*
D03*
X-2098Y1448D02*
D03*
X-3160Y1490D02*
D03*
X1050Y2330D02*
D03*
X1590D02*
D03*
X1930D02*
D03*
X1310Y2010D02*
D03*
X3280Y2920D02*
D03*
X2310Y2410D02*
D03*
X3340Y1280D02*
D03*
X3350Y133D02*
D03*
X2400Y-530D02*
D03*
X3350Y-527D02*
D03*
X2030Y-1690D02*
D03*
X3130D02*
D03*
X-2790Y-80D02*
D03*
X-1270Y1552D02*
D03*
X-3160Y3490D02*
D03*
X-1680Y3460D02*
D03*
X-390Y3490D02*
D03*
Y2892D02*
D03*
X-2070Y1790D02*
D03*
X-3160Y2920D02*
D03*
X-2280Y2890D02*
D03*
X-390Y1612D02*
D03*
X3280Y3490D02*
D03*
X1130D02*
D03*
X630Y2330D02*
D03*
Y3490D02*
D03*
X2925Y1274D02*
D03*
D34*
X-709Y709D02*
D03*
X-236D02*
D03*
X236D02*
D03*
X709D02*
D03*
X-709Y236D02*
D03*
X-236D02*
D03*
X236D02*
D03*
X709D02*
D03*
X-709Y-236D02*
D03*
X-236D02*
D03*
X236D02*
D03*
X709D02*
D03*
X-709Y-709D02*
D03*
X-236D02*
D03*
X236D02*
D03*
X709D02*
D03*
M02*
