M48
;Layer_Color=9474304
;FILE_FORMAT=2:4
INCH,TZ
;TYPE=PLATED
T1F00S00C0.0120
T2F00S00C0.0130
T3F00S00C0.0276
%
T01
X-1070Y-2610
X2020Y-2930
X3130
X-2240Y-2610
X-3160Y-2930
Y-1380
X-2790Y-80
X-2620Y750
X-2720Y1150
X-3160Y1490
X-2098Y1448
X-2070Y1790
X-2280Y2890
X-3160Y2920
Y3490
X-1680Y3460
X-390Y3490
Y2892
Y1612
X-1270Y1552
X1310Y1580
Y2010
X1050Y2330
X630
X1590
X1930
X2310Y2410
X3280Y2920
Y3490
X1130
X630
X2590Y1010
Y680
X2372Y138
X2400Y-530
X2750Y-940
X3350Y-527
Y133
X3340Y1280
X2925Y1274
X3130Y-1690
X2030
X-940Y-1930
X-1310Y-1940
X-1180Y-1181
T02
X-709Y-709
X-236
Y-236
X-709
Y236
Y709
X-236
Y236
X236
Y709
X709
Y236
Y-236
X236
Y-709
X709
T03
X-1395Y-2870
X-1895
M30
