G04 Layer_Color=8388736*
%FSLAX24Y24*%
%MOIN*%
G70*
G01*
G75*
%ADD35R,0.0257X0.0296*%
%ADD36R,0.0434X0.0395*%
%ADD37R,0.0296X0.0257*%
%ADD38R,0.0316X0.0257*%
%ADD39R,0.0355X0.0375*%
%ADD40R,0.0769X0.0454*%
%ADD41R,0.0360X0.0360*%
%ADD42R,0.0375X0.0355*%
G04:AMPARAMS|DCode=43|XSize=25.7mil|YSize=31.6mil|CornerRadius=0mil|HoleSize=0mil|Usage=FLASHONLY|Rotation=40.000|XOffset=0mil|YOffset=0mil|HoleType=Round|Shape=Rectangle|*
%AMROTATEDRECTD43*
4,1,4,0.0003,-0.0204,-0.0200,0.0038,-0.0003,0.0204,0.0200,-0.0038,0.0003,-0.0204,0.0*
%
%ADD43ROTATEDRECTD43*%

G04:AMPARAMS|DCode=44|XSize=37.5mil|YSize=35.5mil|CornerRadius=0mil|HoleSize=0mil|Usage=FLASHONLY|Rotation=40.000|XOffset=0mil|YOffset=0mil|HoleType=Round|Shape=Rectangle|*
%AMROTATEDRECTD44*
4,1,4,-0.0029,-0.0257,-0.0258,0.0016,0.0029,0.0257,0.0258,-0.0016,-0.0029,-0.0257,0.0*
%
%ADD44ROTATEDRECTD44*%

%ADD45O,0.0316X0.0139*%
%ADD46O,0.0139X0.0316*%
%ADD47R,0.1910X0.1910*%
D35*
X-2380Y-17D02*
D03*
Y377D02*
D03*
X1030Y2007D02*
D03*
Y1613D02*
D03*
X1940Y2007D02*
D03*
Y1613D02*
D03*
X1650Y-197D02*
D03*
Y197D02*
D03*
X1590Y2007D02*
D03*
Y1613D02*
D03*
X3340Y1613D02*
D03*
Y2007D02*
D03*
X650Y1613D02*
D03*
Y2007D02*
D03*
D36*
X2354Y1584D02*
D03*
Y2036D02*
D03*
X2925D02*
D03*
Y1584D02*
D03*
D37*
X-2297Y740D02*
D03*
X-1903D02*
D03*
X1883Y680D02*
D03*
X2277D02*
D03*
X2277Y1030D02*
D03*
X1883D02*
D03*
X-3137Y-1060D02*
D03*
X-2743D02*
D03*
X-1317Y-1610D02*
D03*
X-923D02*
D03*
D38*
X2023Y-200D02*
D03*
X2397D02*
D03*
D39*
X-1834Y1150D02*
D03*
X-2366D02*
D03*
D40*
X-2940Y342D02*
D03*
Y-642D02*
D03*
D41*
X3350Y-197D02*
D03*
D42*
X-890Y2188D02*
D03*
Y1656D02*
D03*
D43*
X-1230Y2599D02*
D03*
X-1470Y2885D02*
D03*
D44*
X-1251Y3286D02*
D03*
X-909Y2878D02*
D03*
D45*
X-1191Y866D02*
D03*
Y709D02*
D03*
Y551D02*
D03*
Y394D02*
D03*
Y236D02*
D03*
Y79D02*
D03*
Y-79D02*
D03*
Y-236D02*
D03*
Y-394D02*
D03*
Y-551D02*
D03*
Y-709D02*
D03*
Y-866D02*
D03*
X1191D02*
D03*
Y-709D02*
D03*
Y-551D02*
D03*
Y-394D02*
D03*
Y-236D02*
D03*
Y-79D02*
D03*
Y79D02*
D03*
Y236D02*
D03*
Y394D02*
D03*
Y551D02*
D03*
Y709D02*
D03*
Y866D02*
D03*
D46*
X-866Y-1191D02*
D03*
X-709D02*
D03*
X-551D02*
D03*
X-394D02*
D03*
X-236D02*
D03*
X-79D02*
D03*
X79D02*
D03*
X236D02*
D03*
X394D02*
D03*
X551D02*
D03*
X709D02*
D03*
X866D02*
D03*
Y1191D02*
D03*
X709D02*
D03*
X551D02*
D03*
X394D02*
D03*
X236D02*
D03*
X79D02*
D03*
X-79D02*
D03*
X-236D02*
D03*
X-394D02*
D03*
X-551D02*
D03*
X-709D02*
D03*
X-866D02*
D03*
D47*
X0Y0D02*
D03*
M02*
