G04 Layer_Color=65535*
%FSLAX24Y24*%
%MOIN*%
G70*
G01*
G75*
%ADD23C,0.0060*%
%ADD36C,0.0059*%
%ADD37C,0.0098*%
%ADD38C,0.0079*%
%ADD39C,0.0050*%
D23*
X1168Y1908D02*
Y2164D01*
Y1456D02*
Y1712D01*
X892Y1908D02*
Y2164D01*
Y1456D02*
Y1712D01*
Y1456D02*
X1168D01*
X892Y2164D02*
X1168D01*
X-1624Y-2162D02*
X-1368D01*
X-1172D02*
X-916D01*
X-1624Y-2438D02*
X-1368D01*
X-1172D02*
X-916D01*
Y-2162D01*
X-1624Y-2438D02*
Y-2162D01*
X2577Y2157D02*
X2703D01*
X2215Y1786D02*
Y1834D01*
X2577Y1464D02*
X2703D01*
X3065Y1786D02*
Y1834D01*
X2078Y1908D02*
Y2164D01*
Y1456D02*
Y1712D01*
X1802Y1908D02*
Y2164D01*
Y1456D02*
Y1712D01*
Y1456D02*
X2078D01*
X1802Y2164D02*
X2078D01*
X1512Y-354D02*
Y-98D01*
Y98D02*
Y354D01*
X1788Y-354D02*
Y-98D01*
Y98D02*
Y354D01*
X1512D02*
X1788D01*
X1512Y-354D02*
X1788D01*
X-2454Y878D02*
X-2198D01*
X-2002D02*
X-1746D01*
X-2454Y602D02*
X-2198D01*
X-2002D02*
X-1746D01*
Y878D01*
X-2454Y602D02*
Y878D01*
X1726Y818D02*
X1982D01*
X2178D02*
X2434D01*
X1726Y542D02*
X1982D01*
X2178D02*
X2434D01*
Y818D01*
X1726Y542D02*
Y818D01*
X2178Y892D02*
X2434D01*
X1726D02*
X1982D01*
X2178Y1168D02*
X2434D01*
X1726D02*
X1982D01*
X1726Y892D02*
Y1168D01*
X2434Y892D02*
Y1168D01*
X1728Y1908D02*
Y2164D01*
Y1456D02*
Y1712D01*
X1452Y1908D02*
Y2164D01*
Y1456D02*
Y1712D01*
Y1456D02*
X1728D01*
X1452Y2164D02*
X1728D01*
X2564Y-338D02*
Y-62D01*
X1856Y-338D02*
Y-62D01*
X2112D01*
X2308D02*
X2564D01*
X1856Y-338D02*
X2112D01*
X2308D02*
X2564D01*
X-2563Y1347D02*
X-2198D01*
X-2002D02*
X-1637D01*
X-2563Y953D02*
X-2198D01*
X-2002D02*
X-1637D01*
Y1347D01*
X-2563Y953D02*
Y1347D01*
X-1167Y2880D02*
X-933Y2601D01*
X-1528Y3310D02*
X-1294Y3031D01*
X-866Y3133D02*
X-632Y2854D01*
X-1226Y3563D02*
X-992Y3284D01*
X-1528Y3310D02*
X-1226Y3563D01*
X-933Y2601D02*
X-632Y2854D01*
X-1392Y2578D02*
X-1228Y2382D01*
X-1683Y2925D02*
X-1519Y2729D01*
X-1181Y2755D02*
X-1016Y2559D01*
X-1472Y3102D02*
X-1307Y2906D01*
X-1683Y2925D02*
X-1472Y3102D01*
X-1228Y2382D02*
X-1016Y2559D01*
X-1087Y2385D02*
X-693Y2385D01*
X-1087Y1459D02*
X-693Y1459D01*
Y2020D02*
Y2385D01*
Y1459D02*
Y1824D01*
X-1087Y2020D02*
Y2385D01*
Y1459D02*
Y1824D01*
X-2394Y-2162D02*
X-2138D01*
X-1942D02*
X-1686D01*
X-2394Y-2438D02*
X-2138D01*
X-1942D02*
X-1686D01*
Y-2162D01*
X-2394Y-2438D02*
Y-2162D01*
X-3294Y-922D02*
X-3038D01*
X-2842D02*
X-2586D01*
X-3294Y-1198D02*
X-3038D01*
X-2842D02*
X-2586D01*
Y-922D01*
X-3294Y-1198D02*
Y-922D01*
X-1474Y-1472D02*
X-1218D01*
X-1022D02*
X-766D01*
X-1474Y-1748D02*
X-1218D01*
X-1022D02*
X-766D01*
Y-1472D01*
X-1474Y-1748D02*
Y-1472D01*
X-2518Y-174D02*
Y82D01*
Y278D02*
Y534D01*
X-2242Y-174D02*
Y82D01*
Y278D02*
Y534D01*
X-2518D02*
X-2242D01*
X-2518Y-174D02*
X-2242D01*
X3202Y1456D02*
Y1712D01*
Y1909D02*
Y2164D01*
X3478Y1456D02*
Y1712D01*
Y1909D02*
Y2164D01*
X3202D02*
X3478D01*
X3202Y1456D02*
X3478D01*
X512Y2164D02*
X788D01*
X512Y1456D02*
X788D01*
X512D02*
Y1712D01*
Y1908D02*
Y2164D01*
X788Y1456D02*
Y1712D01*
Y1908D02*
Y2164D01*
X-443Y-2183D02*
X-488Y-2138D01*
X-578D01*
X-623Y-2183D01*
Y-2363D01*
X-578Y-2408D01*
X-488D01*
X-443Y-2363D01*
X-353Y-2453D02*
X-173D01*
X-38Y-2183D02*
Y-2228D01*
X-83D01*
X7D01*
X-38D01*
Y-2363D01*
X7Y-2408D01*
X142Y-2228D02*
Y-2363D01*
X187Y-2408D01*
X322D01*
Y-2228D01*
X412Y-2408D02*
Y-2228D01*
X547D01*
X592Y-2273D01*
Y-2408D01*
X817D02*
X727D01*
X682Y-2363D01*
Y-2273D01*
X727Y-2228D01*
X817D01*
X862Y-2273D01*
Y-2318D01*
X682D01*
X1132Y-2408D02*
X952D01*
X1132Y-2228D01*
Y-2183D01*
X1087Y-2138D01*
X997D01*
X952Y-2183D01*
X-3160Y-1835D02*
X-3205Y-1790D01*
X-3295D01*
X-3340Y-1835D01*
Y-2015D01*
X-3295Y-2060D01*
X-3205D01*
X-3160Y-2015D01*
X-3070Y-2105D02*
X-2890D01*
X-2755Y-1835D02*
Y-1880D01*
X-2800D01*
X-2710D01*
X-2755D01*
Y-2015D01*
X-2710Y-2060D01*
X-2575Y-1880D02*
Y-2015D01*
X-2530Y-2060D01*
X-2395D01*
Y-1880D01*
X-2305Y-2060D02*
Y-1880D01*
X-2170D01*
X-2125Y-1925D01*
Y-2060D01*
X-1900D02*
X-1990D01*
X-2035Y-2015D01*
Y-1925D01*
X-1990Y-1880D01*
X-1900D01*
X-1855Y-1925D01*
Y-1970D01*
X-2035D01*
X-1766Y-2060D02*
X-1676D01*
X-1721D01*
Y-1790D01*
X-1766Y-1835D01*
X-2105Y10D02*
X-2150Y-35D01*
Y-125D01*
X-2105Y-170D01*
X-1925D01*
X-1880Y-125D01*
Y-35D01*
X-1925Y10D01*
X-1880Y100D02*
Y190D01*
Y145D01*
X-2150D01*
X-2105Y100D01*
X-1880Y325D02*
Y415D01*
Y370D01*
X-2150D01*
X-2105Y325D01*
X-2310Y-965D02*
X-2355Y-920D01*
X-2445D01*
X-2490Y-965D01*
Y-1145D01*
X-2445Y-1190D01*
X-2355D01*
X-2310Y-1145D01*
X-2220Y-1190D02*
X-2130D01*
X-2175D01*
Y-920D01*
X-2220Y-965D01*
X-1815Y-1190D02*
X-1995D01*
X-1815Y-1010D01*
Y-965D01*
X-1860Y-920D01*
X-1950D01*
X-1995Y-965D01*
X-2460Y-510D02*
X-2280Y-780D01*
Y-510D02*
X-2460Y-780D01*
X-2010D02*
X-2190D01*
X-2010Y-600D01*
Y-555D01*
X-2055Y-510D01*
X-2145D01*
X-2190Y-555D01*
X1562Y-918D02*
X1518Y-963D01*
Y-1053D01*
X1562Y-1098D01*
X1742D01*
X1787Y-1053D01*
Y-963D01*
X1742Y-918D01*
X1562Y-828D02*
X1518Y-783D01*
Y-693D01*
X1562Y-648D01*
X1607D01*
X1652Y-693D01*
Y-738D01*
Y-693D01*
X1697Y-648D01*
X1742D01*
X1787Y-693D01*
Y-783D01*
X1742Y-828D01*
X2027Y-628D02*
Y-898D01*
X2207D01*
X2297D02*
X2387D01*
X2342D01*
Y-628D01*
X2297Y-673D01*
X-120Y1760D02*
Y1535D01*
X-75Y1490D01*
X15D01*
X60Y1535D01*
Y1760D01*
X150Y1490D02*
X240D01*
X195D01*
Y1760D01*
X150Y1715D01*
X1853Y2635D02*
X1808Y2590D01*
Y2500D01*
X1853Y2455D01*
X2032D01*
X2077Y2500D01*
Y2590D01*
X2032Y2635D01*
X2077Y2905D02*
Y2725D01*
X1898Y2905D01*
X1853D01*
X1808Y2860D01*
Y2770D01*
X1853Y2725D01*
X2907Y770D02*
X2862Y815D01*
X2772D01*
X2728Y770D01*
Y590D01*
X2772Y545D01*
X2862D01*
X2907Y590D01*
X3177Y815D02*
X3087Y770D01*
X2997Y680D01*
Y590D01*
X3042Y545D01*
X3132D01*
X3177Y590D01*
Y635D01*
X3132Y680D01*
X2997D01*
X-3123Y1237D02*
X-3168Y1282D01*
X-3258D01*
X-3303Y1237D01*
Y1057D01*
X-3258Y1012D01*
X-3168D01*
X-3123Y1057D01*
X-3033D02*
X-2988Y1012D01*
X-2898D01*
X-2853Y1057D01*
Y1237D01*
X-2898Y1282D01*
X-2988D01*
X-3033Y1237D01*
Y1192D01*
X-2988Y1147D01*
X-2853D01*
X1503Y2635D02*
X1458Y2590D01*
Y2500D01*
X1503Y2455D01*
X1682D01*
X1727Y2500D01*
Y2590D01*
X1682Y2635D01*
X1503Y2725D02*
X1458Y2770D01*
Y2860D01*
X1503Y2905D01*
X1548D01*
X1592Y2860D01*
X1637Y2905D01*
X1682D01*
X1727Y2860D01*
Y2770D01*
X1682Y2725D01*
X1637D01*
X1592Y2770D01*
X1548Y2725D01*
X1503D01*
X1592Y2770D02*
Y2860D01*
X2450Y2560D02*
X2630Y2290D01*
Y2560D02*
X2450Y2290D01*
X2720D02*
X2810D01*
X2765D01*
Y2560D01*
X2720Y2515D01*
X3245Y2430D02*
X3200Y2385D01*
Y2295D01*
X3245Y2250D01*
X3425D01*
X3470Y2295D01*
Y2385D01*
X3425Y2430D01*
X3470Y2520D02*
Y2610D01*
Y2565D01*
X3200D01*
X3245Y2520D01*
X2907Y1120D02*
X2862Y1165D01*
X2772D01*
X2728Y1120D01*
Y940D01*
X2772Y895D01*
X2862D01*
X2907Y940D01*
X2997Y1165D02*
X3177D01*
Y1120D01*
X2997Y940D01*
Y895D01*
X-500Y-1525D02*
X-545Y-1480D01*
X-635D01*
X-680Y-1525D01*
Y-1705D01*
X-635Y-1750D01*
X-545D01*
X-500Y-1705D01*
X-230Y-1480D02*
X-410D01*
Y-1615D01*
X-320Y-1570D01*
X-275D01*
X-230Y-1615D01*
Y-1705D01*
X-275Y-1750D01*
X-365D01*
X-410Y-1705D01*
X-3013Y827D02*
X-3058Y872D01*
X-3148D01*
X-3193Y827D01*
Y647D01*
X-3148Y602D01*
X-3058D01*
X-3013Y647D01*
X-2788Y602D02*
Y872D01*
X-2923Y737D01*
X-2743D01*
X-782Y3517D02*
X-776Y3580D01*
X-834Y3649D01*
X-898Y3655D01*
X-1036Y3539D01*
X-1041Y3476D01*
X-983Y3407D01*
X-920Y3401D01*
X-896Y3303D02*
X-839Y3234D01*
X-868Y3269D01*
X-661Y3442D01*
X-724Y3448D01*
X-580Y3276D02*
X-516Y3270D01*
X-458Y3201D01*
X-464Y3138D01*
X-602Y3022D01*
X-665Y3028D01*
X-723Y3096D01*
X-717Y3160D01*
X-580Y3276D01*
X-1693Y2754D02*
X-1900Y2580D01*
X-1784Y2442D01*
X-1554Y2518D02*
X-1491Y2512D01*
X-1433Y2443D01*
X-1439Y2380D01*
X-1473Y2351D01*
X-1536Y2357D01*
X-1565Y2391D01*
X-1536Y2357D01*
X-1542Y2293D01*
X-1576Y2264D01*
X-1640Y2270D01*
X-1698Y2339D01*
X-1692Y2402D01*
X-1450Y1772D02*
X-1180D01*
Y1952D01*
Y2222D02*
Y2042D01*
X-1360Y2222D01*
X-1405D01*
X-1450Y2177D01*
Y2087D01*
X-1405Y2042D01*
D36*
X-1395Y-3106D02*
G03*
X-1395Y-2634I0J236D01*
G01*
X-1895D02*
G03*
X-1895Y-3106I0J-236D01*
G01*
Y-2634D02*
X-1395D01*
X-1895Y-3106D02*
X-1395D01*
D37*
X-1486Y866D02*
G03*
X-1486Y866I-49J0D01*
G01*
D38*
X-2139Y1268D02*
X-2061D01*
X-2139Y1032D02*
X-2061D01*
X-2645Y-386D02*
Y86D01*
X-3235Y-386D02*
Y86D01*
X-1195Y3036D02*
X-1145Y2976D01*
X-1015Y3188D02*
X-964Y3128D01*
X-772Y1883D02*
Y1961D01*
X-1008Y1961D02*
X-1008Y1883D01*
X-1181Y984D02*
X-984Y1181D01*
X984D02*
X1181D01*
Y984D02*
Y1181D01*
Y-1181D02*
Y-984D01*
X984Y-1181D02*
X1181D01*
X-1181D02*
X-984D01*
X-1181D02*
Y-984D01*
D39*
X952Y2624D02*
X910Y2582D01*
Y2499D01*
X952Y2457D01*
X1118D01*
X1160Y2499D01*
Y2582D01*
X1118Y2624D01*
X1160Y2707D02*
Y2790D01*
Y2748D01*
X910D01*
X952Y2707D01*
Y2915D02*
X910Y2957D01*
Y3040D01*
X952Y3082D01*
X993D01*
X1035Y3040D01*
Y2998D01*
Y3040D01*
X1077Y3082D01*
X1118D01*
X1160Y3040D01*
Y2957D01*
X1118Y2915D01*
X542Y2627D02*
X500Y2585D01*
Y2502D01*
X542Y2460D01*
X708D01*
X750Y2502D01*
Y2585D01*
X708Y2627D01*
X750Y2710D02*
Y2793D01*
Y2752D01*
X500D01*
X542Y2710D01*
X750Y3043D02*
X500D01*
X625Y2918D01*
Y3085D01*
M02*
