G04 Layer_Physical_Order=2*
G04 Layer_Color=16711680*
%FSLAX24Y24*%
%MOIN*%
G70*
G01*
G75*
%ADD26C,0.0100*%
%ADD32C,0.0394*%
%ADD33C,0.0240*%
%ADD34C,0.0260*%
%ADD35C,0.0150*%
G36*
X3457Y-3047D02*
X-1098D01*
X-1126Y-2997D01*
X-1106Y-2947D01*
X-1096Y-2870D01*
X-1106Y-2793D01*
X-1136Y-2720D01*
X-1183Y-2658D01*
X-1245Y-2611D01*
X-1318Y-2581D01*
X-1395Y-2571D01*
X-1472Y-2581D01*
X-1545Y-2611D01*
X-1607Y-2658D01*
X-1620Y-2676D01*
X-1670D01*
X-1683Y-2658D01*
X-1745Y-2611D01*
X-1818Y-2581D01*
X-1895Y-2571D01*
X-1972Y-2581D01*
X-2045Y-2611D01*
X-2107Y-2658D01*
X-2154Y-2720D01*
X-2184Y-2793D01*
X-2194Y-2870D01*
X-2184Y-2947D01*
X-2164Y-2997D01*
X-2192Y-3047D01*
X-3277D01*
Y3657D01*
X3457D01*
Y-3047D01*
D02*
G37*
%LPC*%
G36*
X1310Y1804D02*
X1224Y1787D01*
X1151Y1739D01*
X1103Y1666D01*
X1086Y1580D01*
X1087Y1573D01*
X987Y1473D01*
X-1879D01*
X-1891Y1533D01*
X-1940Y1606D01*
X-2013Y1655D01*
X-2098Y1672D01*
X-2184Y1655D01*
X-2257Y1606D01*
X-2306Y1533D01*
X-2323Y1448D01*
X-2306Y1362D01*
X-2277Y1319D01*
Y567D01*
X-2263Y498D01*
X-2225Y440D01*
X-1638Y-146D01*
Y-1411D01*
X-1624Y-1479D01*
X-1586Y-1537D01*
X-1157Y-1965D01*
X-1147Y-2016D01*
X-1099Y-2089D01*
X-1026Y-2137D01*
X-940Y-2154D01*
X-854Y-2137D01*
X-781Y-2089D01*
X-733Y-2016D01*
X-716Y-1930D01*
X-733Y-1844D01*
X-781Y-1771D01*
X-854Y-1723D01*
X-905Y-1713D01*
X-1281Y-1337D01*
Y-72D01*
X-1281Y-72D01*
X-1295Y-4D01*
X-1333Y54D01*
X-1920Y640D01*
Y1167D01*
X1050D01*
X1108Y1179D01*
X1158Y1212D01*
X1303Y1357D01*
X1310Y1356D01*
X1396Y1373D01*
X1469Y1421D01*
X1517Y1494D01*
X1534Y1580D01*
X1517Y1666D01*
X1469Y1739D01*
X1396Y1787D01*
X1310Y1804D01*
D02*
G37*
%LPD*%
D26*
X-1971Y1320D02*
X1050D01*
X-2098Y1448D02*
X-1971Y1320D01*
X1050D02*
X1310Y1580D01*
D32*
X-1895Y-2870D02*
D03*
X-1395D02*
D03*
D33*
X3130Y-2930D02*
D03*
X2020D02*
D03*
X-3160D02*
D03*
X-1070Y-2610D02*
D03*
X-2240D02*
D03*
X-3160Y-1380D02*
D03*
X2372Y138D02*
D03*
X2590Y1010D02*
D03*
Y680D02*
D03*
X-2620Y750D02*
D03*
X-1180Y-1181D02*
D03*
X-940Y-1930D02*
D03*
X2750Y-940D02*
D03*
X-1310Y-1940D02*
D03*
X1310Y1580D02*
D03*
X-2720Y1150D02*
D03*
X-2098Y1448D02*
D03*
X-3160Y1490D02*
D03*
X1050Y2330D02*
D03*
X1590D02*
D03*
X1930D02*
D03*
X1310Y2010D02*
D03*
X3280Y2920D02*
D03*
X2310Y2410D02*
D03*
X3340Y1280D02*
D03*
X3350Y133D02*
D03*
X2400Y-530D02*
D03*
X3350Y-527D02*
D03*
X2030Y-1690D02*
D03*
X3130D02*
D03*
X-2790Y-80D02*
D03*
X-1270Y1552D02*
D03*
X-3160Y3490D02*
D03*
X-1680Y3460D02*
D03*
X-390Y3490D02*
D03*
Y2892D02*
D03*
X-2070Y1790D02*
D03*
X-3160Y2920D02*
D03*
X-2280Y2890D02*
D03*
X-390Y1612D02*
D03*
X3280Y3490D02*
D03*
X1130D02*
D03*
X630Y2330D02*
D03*
Y3490D02*
D03*
X2925Y1274D02*
D03*
D34*
X-709Y709D02*
D03*
X-236D02*
D03*
X236D02*
D03*
X709D02*
D03*
X-709Y236D02*
D03*
X-236D02*
D03*
X236D02*
D03*
X709D02*
D03*
X-709Y-236D02*
D03*
X-236D02*
D03*
X236D02*
D03*
X709D02*
D03*
X-709Y-709D02*
D03*
X-236D02*
D03*
X236D02*
D03*
X709D02*
D03*
D35*
X-1459Y-1411D02*
Y-72D01*
X-2098Y567D02*
X-1459Y-72D01*
X-2098Y567D02*
Y1448D01*
X-1459Y-1411D02*
X-940Y-1930D01*
M02*
