G04 Layer_Color=65535*
%FSLAX24Y24*%
%MOIN*%
G70*
G01*
G75*
%ADD21C,0.0060*%
%ADD29C,0.0098*%
%ADD30C,0.0079*%
%ADD31C,0.0050*%
D21*
X1169Y1908D02*
Y2164D01*
Y1456D02*
Y1712D01*
X894Y1908D02*
Y2164D01*
Y1456D02*
Y1712D01*
Y1456D02*
X1169D01*
X894Y2164D02*
X1169D01*
X2579Y2157D02*
X2705D01*
X2216Y1786D02*
Y1834D01*
X2579Y1464D02*
X2705D01*
X3067Y1786D02*
Y1834D01*
X2079Y1908D02*
Y2164D01*
Y1456D02*
Y1712D01*
X1804Y1908D02*
Y2164D01*
Y1456D02*
Y1712D01*
Y1456D02*
X2079D01*
X1804Y2164D02*
X2079D01*
X1512Y-354D02*
Y-98D01*
Y98D02*
Y354D01*
X1788Y-354D02*
Y-98D01*
Y98D02*
Y354D01*
X1512D02*
X1788D01*
X1512Y-354D02*
X1788D01*
X-2454Y878D02*
X-2198D01*
X-2002D02*
X-1746D01*
X-2454Y602D02*
X-2198D01*
X-2002D02*
X-1746D01*
Y878D01*
X-2454Y602D02*
Y878D01*
X1726Y818D02*
X1982D01*
X2178D02*
X2434D01*
X1726Y542D02*
X1982D01*
X2178D02*
X2434D01*
Y818D01*
X1726Y542D02*
Y818D01*
X2178Y892D02*
X2434D01*
X1726D02*
X1982D01*
X2178Y1168D02*
X2434D01*
X1726D02*
X1982D01*
X1726Y892D02*
Y1168D01*
X2434Y892D02*
Y1168D01*
X1729Y1908D02*
Y2164D01*
Y1456D02*
Y1712D01*
X1454Y1908D02*
Y2164D01*
Y1456D02*
Y1712D01*
Y1456D02*
X1729D01*
X1454Y2164D02*
X1729D01*
X2564Y-338D02*
Y-62D01*
X1856Y-338D02*
Y-62D01*
X2112D01*
X2308D02*
X2564D01*
X1856Y-338D02*
X2112D01*
X2308D02*
X2564D01*
X-2563Y1347D02*
X-2198D01*
X-2002D02*
X-1637D01*
X-2563Y953D02*
X-2198D01*
X-2002D02*
X-1637D01*
Y1347D01*
X-2563Y953D02*
Y1347D01*
X-3294Y-922D02*
X-3038D01*
X-2842D02*
X-2586D01*
X-3294Y-1198D02*
X-3038D01*
X-2842D02*
X-2586D01*
Y-922D01*
X-3294Y-1198D02*
Y-922D01*
X-1474Y-1472D02*
X-1218D01*
X-1022D02*
X-766D01*
X-1474Y-1748D02*
X-1218D01*
X-1022D02*
X-766D01*
Y-1472D01*
X-1474Y-1748D02*
Y-1472D01*
X-920Y1463D02*
X-556D01*
X-1481D02*
X-1117D01*
X-920Y1857D02*
X-556D01*
X-1481D02*
X-1117D01*
X-1481Y1463D02*
Y1857D01*
X-556Y1463D02*
Y1857D01*
X3204Y1456D02*
Y1712D01*
Y1909D02*
Y2164D01*
X3479Y1456D02*
Y1712D01*
Y1909D02*
Y2164D01*
X3204D02*
X3479D01*
X3204Y1456D02*
X3479D01*
X-2518Y-174D02*
Y82D01*
Y278D02*
Y534D01*
X-2242Y-174D02*
Y82D01*
Y278D02*
Y534D01*
X-2518D02*
X-2242D01*
X-2518Y-174D02*
X-2242D01*
X514Y2165D02*
X789D01*
X514Y1457D02*
X789D01*
X514D02*
Y1712D01*
Y1909D02*
Y2165D01*
X789Y1457D02*
Y1712D01*
Y1909D02*
Y2165D01*
X-1299Y2185D02*
X-1344Y2230D01*
X-1433D01*
X-1478Y2185D01*
Y2005D01*
X-1433Y1960D01*
X-1344D01*
X-1299Y2005D01*
X-1209Y1960D02*
X-1119D01*
X-1164D01*
Y2230D01*
X-1209Y2185D01*
X-984D02*
X-939Y2230D01*
X-849D01*
X-804Y2185D01*
Y2005D01*
X-849Y1960D01*
X-939D01*
X-984Y2005D01*
Y2185D01*
X-2116Y11D02*
X-2161Y-34D01*
Y-124D01*
X-2116Y-169D01*
X-1936D01*
X-1891Y-124D01*
Y-34D01*
X-1936Y11D01*
X-1891Y101D02*
Y191D01*
Y146D01*
X-2161D01*
X-2116Y101D01*
X-1891Y326D02*
Y416D01*
Y371D01*
X-2161D01*
X-2116Y326D01*
X-2290Y-965D02*
X-2335Y-920D01*
X-2425D01*
X-2470Y-965D01*
Y-1145D01*
X-2425Y-1190D01*
X-2335D01*
X-2290Y-1145D01*
X-2200Y-1190D02*
X-2110D01*
X-2155D01*
Y-920D01*
X-2200Y-965D01*
X-1795Y-1190D02*
X-1975D01*
X-1795Y-1010D01*
Y-965D01*
X-1840Y-920D01*
X-1930D01*
X-1975Y-965D01*
X-2460Y-510D02*
X-2280Y-780D01*
Y-510D02*
X-2460Y-780D01*
X-2010D02*
X-2190D01*
X-2010Y-600D01*
Y-555D01*
X-2055Y-510D01*
X-2145D01*
X-2190Y-555D01*
X1562Y-918D02*
X1518Y-963D01*
Y-1053D01*
X1562Y-1098D01*
X1742D01*
X1787Y-1053D01*
Y-963D01*
X1742Y-918D01*
X1562Y-828D02*
X1518Y-783D01*
Y-693D01*
X1562Y-648D01*
X1607D01*
X1652Y-693D01*
Y-738D01*
Y-693D01*
X1697Y-648D01*
X1742D01*
X1787Y-693D01*
Y-783D01*
X1742Y-828D01*
X2027Y-628D02*
Y-898D01*
X2207D01*
X2297D02*
X2387D01*
X2342D01*
Y-628D01*
X2297Y-673D01*
X-120Y1750D02*
Y1525D01*
X-75Y1480D01*
X15D01*
X60Y1525D01*
Y1750D01*
X150Y1480D02*
X240D01*
X195D01*
Y1750D01*
X150Y1705D01*
X1854Y2635D02*
X1809Y2590D01*
Y2500D01*
X1854Y2455D01*
X2034D01*
X2079Y2500D01*
Y2590D01*
X2034Y2635D01*
X2079Y2905D02*
Y2725D01*
X1899Y2905D01*
X1854D01*
X1809Y2860D01*
Y2770D01*
X1854Y2725D01*
X2907Y770D02*
X2862Y815D01*
X2772D01*
X2728Y770D01*
Y590D01*
X2772Y545D01*
X2862D01*
X2907Y590D01*
X3177Y815D02*
X3087Y770D01*
X2997Y680D01*
Y590D01*
X3042Y545D01*
X3132D01*
X3177Y590D01*
Y635D01*
X3132Y680D01*
X2997D01*
X-3123Y1237D02*
X-3168Y1282D01*
X-3258D01*
X-3303Y1237D01*
Y1057D01*
X-3258Y1012D01*
X-3168D01*
X-3123Y1057D01*
X-3033D02*
X-2988Y1012D01*
X-2898D01*
X-2853Y1057D01*
Y1237D01*
X-2898Y1282D01*
X-2988D01*
X-3033Y1237D01*
Y1192D01*
X-2988Y1147D01*
X-2853D01*
X1504Y2635D02*
X1459Y2590D01*
Y2500D01*
X1504Y2455D01*
X1684D01*
X1729Y2500D01*
Y2590D01*
X1684Y2635D01*
X1504Y2725D02*
X1459Y2770D01*
Y2860D01*
X1504Y2905D01*
X1549D01*
X1594Y2860D01*
X1639Y2905D01*
X1684D01*
X1729Y2860D01*
Y2770D01*
X1684Y2725D01*
X1639D01*
X1594Y2770D01*
X1549Y2725D01*
X1504D01*
X1594Y2770D02*
Y2860D01*
X2452Y2560D02*
X2631Y2290D01*
Y2560D02*
X2452Y2290D01*
X2721D02*
X2811D01*
X2766D01*
Y2560D01*
X2721Y2515D01*
X3247Y2440D02*
X3202Y2395D01*
Y2305D01*
X3247Y2260D01*
X3427D01*
X3472Y2305D01*
Y2395D01*
X3427Y2440D01*
X3472Y2530D02*
Y2620D01*
Y2575D01*
X3202D01*
X3247Y2530D01*
X2907Y1120D02*
X2862Y1165D01*
X2772D01*
X2728Y1120D01*
Y940D01*
X2772Y895D01*
X2862D01*
X2907Y940D01*
X2997Y1165D02*
X3177D01*
Y1120D01*
X2997Y940D01*
Y895D01*
X-490Y-1525D02*
X-535Y-1480D01*
X-625D01*
X-670Y-1525D01*
Y-1705D01*
X-625Y-1750D01*
X-535D01*
X-490Y-1705D01*
X-220Y-1480D02*
X-400D01*
Y-1615D01*
X-310Y-1570D01*
X-265D01*
X-220Y-1615D01*
Y-1705D01*
X-265Y-1750D01*
X-355D01*
X-400Y-1705D01*
X-3013Y827D02*
X-3058Y872D01*
X-3148D01*
X-3193Y827D01*
Y647D01*
X-3148Y602D01*
X-3058D01*
X-3013Y647D01*
X-2788Y602D02*
Y872D01*
X-2923Y737D01*
X-2743D01*
D29*
X-1486Y866D02*
G03*
X-1486Y866I-49J0D01*
G01*
D30*
X-2139Y1268D02*
X-2061D01*
X-2139Y1032D02*
X-2061D01*
X-2645Y-386D02*
Y86D01*
X-3235Y-386D02*
Y86D01*
X-1058Y1542D02*
X-979D01*
X-1058Y1778D02*
X-979D01*
X-1181Y984D02*
X-984Y1181D01*
X984D02*
X1181D01*
Y984D02*
Y1181D01*
Y-1181D02*
Y-984D01*
X984Y-1181D02*
X1181D01*
X-1181D02*
X-984D01*
X-1181D02*
Y-984D01*
D31*
X953Y2637D02*
X912Y2595D01*
Y2512D01*
X953Y2470D01*
X1120D01*
X1162Y2512D01*
Y2595D01*
X1120Y2637D01*
X1162Y2720D02*
Y2803D01*
Y2762D01*
X912D01*
X953Y2720D01*
Y2928D02*
X912Y2970D01*
Y3053D01*
X953Y3095D01*
X995D01*
X1037Y3053D01*
Y3012D01*
Y3053D01*
X1078Y3095D01*
X1120D01*
X1162Y3053D01*
Y2970D01*
X1120Y2928D01*
X553Y2628D02*
X512Y2586D01*
Y2503D01*
X553Y2461D01*
X720D01*
X762Y2503D01*
Y2586D01*
X720Y2628D01*
X762Y2711D02*
Y2794D01*
Y2753D01*
X512D01*
X553Y2711D01*
X762Y3044D02*
X512D01*
X637Y2919D01*
Y3086D01*
M02*
